<?xml version="1.0" encoding="UTF-8"?>
<svg width="26px" height="20px" viewBox="0 0 26 20" version="1.1" xmlns="http://www.w3.org/2000/svg" xmlns:xlink="http://www.w3.org/1999/xlink">
    <title>icons8-menu_rounded</title>
    <g id="Page-1" stroke="none" stroke-width="1" fill="none" fill-rule="evenodd">
        <g id="iPhone-8" transform="translate(-334.000000, -20.000000)" fill="#000000" fill-rule="nonzero">
            <g id="icons8-menu_rounded" transform="translate(334.000000, 20.000000)">
                <path d="M1.19323634,0.000118156089 C0.768955279,-0.00588223426 0.374310306,0.217032066 0.160418703,0.583502812 C-0.0534729009,0.949973558 -0.0534729009,1.40322342 0.160418703,1.76969417 C0.374310306,2.13616492 0.768955279,2.35907922 1.19323634,2.35307883 L24.722843,2.35307883 C25.1471241,2.35907922 25.5417691,2.13616492 25.7556607,1.76969417 C25.9695523,1.40322342 25.9695523,0.949973558 25.7556607,0.583502812 C25.5417691,0.217032066 25.1471241,-0.00588223426 24.722843,0.000118156089 L1.19323634,0.000118156089 Z M1.19323634,8.82372067 C0.768955279,8.81772028 0.374310306,9.04063458 0.160418703,9.40710532 C-0.0534729009,9.77357607 -0.0534729009,10.2268259 0.160418703,10.5932967 C0.374310306,10.9597674 0.768955279,11.1826817 1.19323634,11.1766813 L24.722843,11.1766813 C25.1471241,11.1826817 25.5417691,10.9597674 25.7556607,10.5932967 C25.9695523,10.2268259 25.9695523,9.77357607 25.7556607,9.40710532 C25.5417691,9.04063458 25.1471241,8.81772028 24.722843,8.82372067 L1.19323634,8.82372067 Z M1.19323634,17.6473232 C0.768955279,17.6413228 0.374310306,17.8642371 0.160418703,18.2307078 C-0.0534729009,18.5971786 -0.0534729009,19.0504284 0.160418703,19.4168992 C0.374310306,19.7833699 0.768955279,20.0062842 1.19323634,20.0002838 L24.722843,20.0002838 C25.1471241,20.0062842 25.5417691,19.7833699 25.7556607,19.4168992 C25.9695523,19.0504284 25.9695523,18.5971786 25.7556607,18.2307078 C25.5417691,17.8642371 25.1471241,17.6413228 24.722843,17.6473232 L1.19323634,17.6473232 Z" id="Shape"></path>
            </g>
        </g>
    </g>
</svg>