<?xml version="1.0" encoding="UTF-8"?>
<svg width="20px" height="20px" viewBox="0 0 20 20" version="1.1" xmlns="http://www.w3.org/2000/svg" xmlns:xlink="http://www.w3.org/1999/xlink">
    <title>Path</title>
    <g id="Page-1" stroke="none" stroke-width="1" fill="none" fill-rule="evenodd">
        <g id="menu" transform="translate(-337.000000, -20.000000)" fill="#000000" fill-rule="nonzero">
            <g id="icons8-multiply" transform="translate(337.000000, 20.000000)">
                <path d="M1.43238395,0.000623891884 C0.852268255,0.000776289987 0.330085484,0.352510284 0.111792449,0.890153285 C-0.106500587,1.42779629 0.0226260619,2.04413657 0.438351585,2.44886756 L7.98408837,9.99692297 L0.438351585,17.5449787 C0.0659270054,17.9026575 -0.0840940671,18.4337896 0.0461462316,18.933536 C0.17638653,19.4332825 0.566536768,19.8235525 1.06612969,19.9538327 C1.5657226,20.0841129 2.0966915,19.9340455 2.45426029,19.5615064 L10,12.0134507 L17.545733,19.5615064 C17.9033009,19.9340497 18.4342718,20.0841202 18.9338673,19.9538405 C19.4334628,19.8235608 19.823615,19.4332887 19.9538547,18.9335396 C20.0840943,18.4337906 19.9340699,17.9026565 19.5616411,17.5449787 L12.0159046,9.99692297 L19.5616411,2.44886756 C19.9832816,2.03888958 20.1100592,1.41203287 19.8808856,0.87035112 C19.6517121,0.328669373 19.1136009,-0.0167146446 18.5258434,0.000623891884 C18.1554705,0.0116631639 17.8039427,0.166502843 17.545733,0.43233927 L10,7.98039525 L2.45426029,0.43233927 C2.1858582,0.15635127 1.81730245,0.000646336724 1.43238395,0.000623891884 Z" id="Path"></path>
            </g>
        </g>
    </g>
</svg>