<?xml version="1.0" encoding="UTF-8"?>
<svg width="26px" height="24px" viewBox="0 0 26 24" version="1.1" xmlns="http://www.w3.org/2000/svg" xmlns:xlink="http://www.w3.org/1999/xlink">
    <title>Path</title>
    <g id="Page-1" stroke="none" stroke-width="1" fill="none" fill-rule="evenodd">
        <g id="Desktop-HD" transform="translate(-720.000000, -3712.000000)" fill="#FFFFFF" fill-rule="nonzero">
            <g id="Section-4" transform="translate(0.000000, 3242.000000)">
                <g id="Rectangle" transform="translate(360.000000, 457.000000)">
                    <g id="icons8-sent" transform="translate(360.000000, 13.000000)">
                        <path d="M3,0 C2.44771525,0 2,0.44771595 2,1 C2.00021019,1.09046132 2.01269387,1.18047513 2.0371094,1.2675788 C2.0377544,1.26953394 2.03840544,1.27148708 2.0390625,1.2734382 L3,8 L0,10 L21,12 L0,14 L3,16 L2.0390625,22.7285167 C2.01363413,22.8167877 2.00048969,22.9081414 2,23 C2,23.5522854 2.44771525,24 3,24 C3.13294779,23.9992805 3.26441736,23.9720571 3.3867188,23.9199227 L3.3886719,23.9218757 L3.4316406,23.9003917 L3.453125,23.8906257 C3.45901695,23.8874294 3.46487661,23.8841739 3.4707031,23.8808597 L25.390625,12.9218757 L25.392578,12.9179697 C25.7603947,12.7609694 25.9993,12.3999229 26,12 C26,11.5988993 25.759859,11.2367589 25.390625,11.0800787 C25.3906256,11.0794277 25.3906256,11.0787767 25.390625,11.0781257 L25.388672,11.0781257 L3.4785156,0.1230476 C3.44933914,0.10657803 3.41935342,0.0915851535 3.3886719,0.0781256996 C3.26562667,0.0264064139 3.1334728,0 3,0 Z" id="Path"></path>
                    </g>
                </g>
            </g>
        </g>
    </g>
</svg>